<?xml version="1.0" encoding="utf-8"?>
<!-- Generator: Adobe Illustrator 21.1.0, SVG Export Plug-In . SVG Version: 6.00 Build 0)  -->
<svg version="1.1" id="Layer_1" xmlns="http://www.w3.org/2000/svg" xmlns:xlink="http://www.w3.org/1999/xlink" x="0px" y="0px"
	 viewBox="0 0 75 75" style="enable-background:new 0 0 75 75;" xml:space="preserve">
<style type="text/css">
	.st0 {
		fill: #000;
		fill-opacity: 0.5;
		cursor: pointer;
	}

	.st1 {
		fill: #FFFFFF;
		fill-opacity: 0.0;
		cursor: pointer;
	}

	.button:hover > .st1 {
		fill-opacity: 1.0;
		-webkit-transition: 200ms;
		-webkit-transition-timing-function: ease-in-out;
		transition: 200ms;
		transition-timing-function: ease-in-out;
	}
</style>
<a href="https://github.com/mmulenga" target="_parent">
	<g class="button">
		<path class="st0" d="M37.5,0C16.9,0,0,16.9,0,37.5S16.9,75,37.5,75S75,58.1,75,37.5S58.1,0,37.5,0z M42.9,52.5c0,0-2.6,0.2-5.4,0.2
			c-2.8,0-5.4-0.2-5.4-0.2c-6.6-0.7-13.4-3.3-13.4-14.5c0-3.3,1.2-5.9,3-8c-0.2-0.7-1.4-3.8,0.2-7.7c0,0,2.6-0.7,8,3
			c2.3-0.7,4.9-0.9,7.3-0.9c2.6,0,4.9,0.2,7.3,0.9c5.6-3.8,8-3,8-3c1.6,4,0.7,7,0.2,7.7c1.9,2.1,3,4.7,3,8
			C56.3,49.2,49.5,51.8,42.9,52.5z"/>
		<path class="st1" d="M56,38c0.6,11.2-6.2,13.8-12.8,14.5c0,0-2.6,0.2-5.4,0.2c-2.8,0-5.4-0.2-5.4-0.2C25.8,51.8,19,49.2,19,38
			c0-3.3,1.2-5.9,3-8c-0.2-0.7-1.4-3.8,0.2-7.7c0,0,2.6-0.7,8,3c2.3-0.7,4.9-0.9,7.3-0.9c2.6,0,4.9,0.2,7.3,0.9c5.6-3.8,8-3,8-3
			c1.6,4,0.7,7,0.2,7.7C54.9,32.1,56,34.7,56,38z"/>
	</g>
</a>
</svg>
