<?xml version="1.0" encoding="utf-8"?>
<!-- Generator: Adobe Illustrator 21.1.0, SVG Export Plug-In . SVG Version: 6.00 Build 0)  -->
<svg version="1.1" id="Layer_1" xmlns="http://www.w3.org/2000/svg" xmlns:xlink="http://www.w3.org/1999/xlink" x="0px" y="0px"
	 viewBox="0 0 75 75" style="enable-background:new 0 0 75 75;" xml:space="preserve">
<style type="text/css">
	.st0{fill:#444444;}
</style>
<ellipse class="st0" cx="37.5" cy="37.5" rx="7.3" ry="7.3"/>
<path class="st0" d="M45.9,30.2h5.2c0.5,0,0.9-0.5,0.9-0.9v-5.2c0-0.5-0.5-0.9-0.9-0.9h-5.2c-0.5,0-0.9,0.5-0.9,0.9v5.2
	C44.8,29.8,45.2,30.2,45.9,30.2z"/>
<path class="st0" d="M37.5,0C16.9,0,0,16.9,0,37.5S16.9,75,37.5,75S75,58.1,75,37.5S58.1,0,37.5,0z M56.3,51.8
	c0,2.3-2.1,4.5-4.5,4.5H23.2c-2.3,0-4.5-1.9-4.5-4.5V23.2c0-2.6,2.1-4.5,4.5-4.5h28.6c2.3,0,4.5,1.9,4.5,4.5V51.8z"/>
<path class="st0" d="M49,37.5C49,43.8,43.8,49,37.5,49S26,43.8,26,37.5c0-0.9,0.2-2.1,0.5-3H23v16.4c0,0.5,0.5,0.9,0.9,0.9h27
	c0.5,0,0.9-0.5,0.9-0.9V34.5h-3.5C48.8,35.4,49,36.6,49,37.5z"/>
</svg>
