<?xml version="1.0" encoding="utf-8"?>
<!-- Generator: Adobe Illustrator 21.1.0, SVG Export Plug-In . SVG Version: 6.00 Build 0)  -->
<svg version="1.1" id="Layer_1" xmlns="http://www.w3.org/2000/svg" xmlns:xlink="http://www.w3.org/1999/xlink" x="0px" y="0px"
	 viewBox="0 0 75 75" style="enable-background:new 0 0 75 75;" xml:space="preserve">
<style type="text/css">
	.st0 {
		fill: #000;
		fill-opacity: 0.5;
		cursor: pointer;
	}

	.st1 {
		fill: #FFFFFF;
		fill-opacity: 0.0;
		cursor: pointer;
	}

	.button:hover > .st1 {
		fill-opacity: 1.0;
		-webkit-transition: 200ms;
		-webkit-transition-timing-function: ease-in-out;
		transition: 200ms;
		transition-timing-function: ease-in-out;
	}
</style>
<a href="https://instagram.com/mattmoowoo" target="_parent">
	<g class="button">
		<circle class="st0" cx="37.5" cy="37.5" r="7.3"/>
		<path class="st0" d="M51.1,23.2h-5.2c-0.5,0-0.9,0.5-0.9,0.9v5.2c-0.2,0.5,0.2,0.9,0.9,0.9h5.2c0.5,0,0.9-0.5,0.9-0.9v-5.2
		C52,23.6,51.5,23.2,51.1,23.2z"/>
		<path class="st0" d="M37.5,0C16.9,0,0,16.9,0,37.5S16.9,75,37.5,75S75,58.1,75,37.5S58.1,0,37.5,0z M56.3,51.8
		c0,2.3-2.1,4.5-4.5,4.5H23.2c-2.3,0-4.5-1.9-4.5-4.5V23.2c0-2.6,2.1-4.5,4.5-4.5h28.6c2.3,0,4.5,1.9,4.5,4.5
		C56.3,23.2,56.3,51.8,56.3,51.8z"/>
		<path class="st0" d="M49,37.5C49,43.8,43.8,49,37.5,49S26,43.8,26,37.5c0-0.9,0.2-2.1,0.5-3H23v16.4c0,0.5,0.5,0.9,0.9,0.9h27
		c0.5,0,0.9-0.5,0.9-0.9V34.5h-3.5C48.8,35.4,49,36.6,49,37.5z"/>
		<path class="st1" d="M23.2,18.7c-2.4,0-4.5,1.9-4.5,4.5v28.6c0,2.6,2.2,4.5,4.5,4.5h28.6c2.4,0,4.5-2.2,4.5-4.5V23.2
		c0-2.6-2.2-4.5-4.5-4.5H23.2z M37.5,30.2c4,0,7.3,3.3,7.3,7.3s-3.3,7.3-7.3,7.3s-7.3-3.3-7.3-7.3S33.5,30.2,37.5,30.2z M51.8,50.9
		c0,0.4-0.4,0.9-0.9,0.9h-27c-0.4,0-0.9-0.4-0.9-0.9V34.5h3.5c-0.3,0.9-0.5,2.1-0.5,3C26,43.8,31.2,49,37.5,49S49,43.8,49,37.5
		c0-0.9-0.2-2.1-0.7-3h3.5V50.9z M52,29.3c0,0.4-0.4,0.9-0.9,0.9h-5.2c-0.7,0-1.1-0.4-0.9-0.9v-5.2c0-0.4,0.4-0.9,0.9-0.9h5.2
		c0.4,0,0.9,0.4,0.9,0.9V29.3z"/>
	</g>
</a>
</svg>
