<?xml version="1.0" encoding="utf-8"?>
<!-- Generator: Adobe Illustrator 21.1.0, SVG Export Plug-In . SVG Version: 6.00 Build 0)  -->
<svg version="1.1" id="Layer_1" xmlns="http://www.w3.org/2000/svg" xmlns:xlink="http://www.w3.org/1999/xlink" x="0px" y="0px"
	 viewBox="0 0 10 10" style="enable-background:new 0 0 10 10;" xml:space="preserve">
<style type="text/css">
	.st0{fill:#FFFFFF;}
</style>
<g>
		<path class="st0" d="M7.5,3h-5C2.2,3,2,2.8,2,2.5v0C2,2.2,2.2,2,2.5,2h5C7.8,2,8,2.2,8,2.5v0C8,2.8,7.8,3,7.5,3z"/>
		<path class="st0" d="M7.5,5.3h-5C2.2,5.3,2,5,2,4.8v0c0-0.3,0.2-0.5,0.5-0.5h5C7.8,4.3,8,4.5,8,4.7v0C8,5,7.8,5.3,7.5,5.3z"/>
		<path class="st0" d="M7.5,7.5h-5C2.2,7.5,2,7.3,2,7v0c0-0.3,0.2-0.5,0.5-0.5h5C7.8,6.5,8,6.7,8,7v0C8,7.3,7.8,7.5,7.5,7.5z"/>
</g>
</svg>
