<?xml version="1.0" encoding="utf-8"?>
<!-- Generator: Adobe Illustrator 21.1.0, SVG Export Plug-In . SVG Version: 6.00 Build 0)  -->
<svg version="1.1" id="Layer_1" xmlns="http://www.w3.org/2000/svg" xmlns:xlink="http://www.w3.org/1999/xlink" x="0px" y="0px"
	 viewBox="0 0 10 10" style="enable-background:new 0 0 10 10;" xml:space="preserve">
<style type="text/css">
	.st0{fill:#FFFFFF;}
</style>
<g>
	<path class="st0" d="M7.5,3.3h-5C2.2,3.3,2,3.1,2,2.9l0,0c0-0.2,0.2-0.4,0.5-0.4h5C7.8,2.5,8,2.7,8,2.9l0,0C8,3.1,7.8,3.3,7.5,3.3z
		"/>
	<path class="st0" d="M7.5,5.4h-5C2.2,5.4,2,5.2,2,5l0,0c0-0.2,0.2-0.4,0.5-0.4h5C7.8,4.6,8,4.8,8,5l0,0C8,5.2,7.8,5.4,7.5,5.4z"/>
	<path class="st0" d="M7.5,7.5h-5C2.2,7.5,2,7.3,2,7.1l0,0c0-0.2,0.2-0.4,0.5-0.4h5C7.8,6.7,8,6.9,8,7.1l0,0C8,7.3,7.8,7.5,7.5,7.5z
		"/>
</g>
</svg>
