<?xml version="1.0" encoding="utf-8"?>
<!-- Generator: Adobe Illustrator 21.1.0, SVG Export Plug-In . SVG Version: 6.00 Build 0)  -->
<svg version="1.1" id="Layer_1" xmlns="http://www.w3.org/2000/svg" xmlns:xlink="http://www.w3.org/1999/xlink" x="0px" y="0px"
	 viewBox="0 0 75 75" style="enable-background:new 0 0 75 75;" xml:space="preserve">
<style type="text/css">
	.st0{fill:#444444;}
</style>
<path class="st0" d="M37.5,0C16.9,0,0,16.9,0,37.5S16.9,75,37.5,75S75,58.1,75,37.5S58.1,0,37.5,0z M52.5,29.8c0,0.2,0,0.7,0,0.9
	c0,10.1-7.7,21.8-21.8,21.8c-4.5,0-8.4-1.2-11.7-3.5c0.7,0,1.2,0,1.9,0c3.5,0,7-1.2,9.6-3.3c-3.3,0-6.1-2.3-7.3-5.4
	c0.5,0,0.9,0.2,1.4,0.2c0.7,0,1.4,0,2.1-0.2c-3.5-0.7-6.1-3.8-6.1-7.5l0,0c0.9,0.5,2.1,0.9,3.5,0.9c-2.1-1.4-3.5-3.8-3.5-6.3
	c0-1.4,0.5-2.8,0.9-4c3.8,4.7,9.4,7.7,15.9,8c-0.2-0.5-0.2-1.2-0.2-1.6c0-4.2,3.5-7.7,7.7-7.7c2.1,0,4.2,0.9,5.6,2.3
	c1.6-0.2,3.5-0.9,4.9-1.9c-0.5,1.9-1.9,3.3-3.3,4.2c1.6-0.2,3-0.7,4.5-1.2C55.3,27.4,53.9,28.8,52.5,29.8z"/>
</svg>
